<svg width="64" height="64" viewBox="0 0 64 64" fill="none" xmlns="http://www.w3.org/2000/svg">
    <path d="M46 20C46 13.3726 40.6274 8 34 8C28.5 8 23.8 11.7 22.5 16.8C21.8 16.6 21 16.5 20.3 16.5C12.3 16.5 5.8 23 5.8 31C5.8 38.7 11.8 45 19.4 45.5H46.5C53.4 45.5 59 39.9 59 33C59 26.3 53.8 20.8 47.2 20.1C46.8 20.1 46.4 20 46 20Z" fill="#B0BEC5"/>
    <path d="M41.5 56H19.4C11.8 56 5.8 50.3 5.8 43.2C5.8 36.5 10.8 31 17.1 30.5C17.8 25.3 22.3 21.3 27.7 21.3C32.7 21.3 37 24.6 38.7 29.1C40.1 28.4 41.8 28 43.5 28C49.3 28 54 32.7 54 38.5C54 44.3 49.3 49 43.5 49H41.5V56Z" fill="#90A4AE"/>
</svg>