<svg width="64" height="64" viewBox="0 0 64 64" fill="none" xmlns="http://www.w3.org/2000/svg">
    <path d="M46 16C46 9.37258 40.6274 4 34 4C28.5 4 23.8 7.7 22.5 12.8C21.8 12.6 21 12.5 20.3 12.5C12.3 12.5 5.8 19 5.8 27C5.8 34.7 11.8 41 19.4 41.5H46.5C53.4 41.5 59 35.9 59 29C59 22.3 53.8 16.8 47.2 16.1C46.8 16.1 46.4 16 46 16Z" fill="#90A4AE"/>
    <g fill="#4FC3F7">
        <rect x="22" y="46" width="4" height="10" rx="2" transform="rotate(15 22 46)"/>
        <rect x="36" y="46" width="4" height="10" rx="2" transform="rotate(15 36 46)"/>
        <rect x="50" y="46" width="4" height="10" rx="2" transform="rotate(15 50 46)"/>
    </g>
</svg>